solid OpenSCAD_Model
  facet normal -1 0 0
    outer loop
      vertex 0 0 0
      vertex 0 0 42.099999999999994
      vertex 0 2 2
    endloop
  endfacet
  facet normal 0 -1 0
    outer loop
      vertex 0 0 0
      vertex 3.174999999999997 0 3.174999999999997
      vertex 0 0 42.099999999999994
    endloop
  endfacet
  facet normal 0 -1 0
    outer loop
      vertex 0 0 0
      vertex 38.925 0 3.174999999999997
      vertex 3.174999999999997 0 3.174999999999997
    endloop
  endfacet
  facet normal 0 -1 0
    outer loop
      vertex 0 0 42.099999999999994
      vertex 3.174999999999997 0 3.174999999999997
      vertex 3.174999999999997 0 38.925
    endloop
  endfacet
  facet normal -1 0 0
    outer loop
      vertex 0 2 2
      vertex 0 0 42.099999999999994
      vertex 0 2 40.099999999999994
    endloop
  endfacet
  facet normal 0 -1 0
    outer loop
      vertex 0 0 42.099999999999994
      vertex 3.174999999999997 0 38.925
      vertex 42.099999999999994 0 42.099999999999994
    endloop
  endfacet
  facet normal -1 0 0
    outer loop
      vertex 0 0 0
      vertex 0 2 2
      vertex 0 35.75 0
    endloop
  endfacet
  facet normal -1 0 0
    outer loop
      vertex 0 2 2
      vertex 0 33.75 2
      vertex 0 35.75 0
    endloop
  endfacet
  facet normal -1 0 0
    outer loop
      vertex 0 33.75 2
      vertex 0 35.75 42.099999999999994
      vertex 0 35.75 0
    endloop
  endfacet
  facet normal 0 0 -1
    outer loop
      vertex 0 0 0
      vertex 0 35.75 0
      vertex 42.099999999999994 35.75 0
    endloop
  endfacet
  facet normal 0 1 0
    outer loop
      vertex 0 35.75 0
      vertex 20.60495813208737 35.75 19.10014417563635
      vertex 42.099999999999994 35.75 0
    endloop
  endfacet
  facet normal 0 1 0
    outer loop
      vertex 0 35.75 0
      vertex 19.24806226419516 35.75 21.917767478235113
      vertex 19.24806226419516 35.75 20.18223252176488
    endloop
  endfacet
  facet normal 0 1 0
    outer loop
      vertex 0 35.75 0
      vertex 19.24806226419516 35.75 20.18223252176488
      vertex 20.60495813208737 35.75 19.10014417563635
    endloop
  endfacet
  facet normal -1 0 0
    outer loop
      vertex 0 0 42.099999999999994
      vertex 0 33.75 40.099999999999994
      vertex 0 2 40.099999999999994
    endloop
  endfacet
  facet normal -1 0 0
    outer loop
      vertex 0 33.75 2
      vertex 0 33.75 40.099999999999994
      vertex 0 35.75 42.099999999999994
    endloop
  endfacet
  facet normal 0 1 0
    outer loop
      vertex 0 35.75 0
      vertex 0 35.75 42.099999999999994
      vertex 19.24806226419516 35.75 21.917767478235113
    endloop
  endfacet
  facet normal -1 0 0
    outer loop
      vertex 0 0 42.099999999999994
      vertex 0 35.75 42.099999999999994
      vertex 0 33.75 40.099999999999994
    endloop
  endfacet
  facet normal 0 0 1
    outer loop
      vertex 0 0 42.099999999999994
      vertex 42.099999999999994 0 42.099999999999994
      vertex 0 35.75 42.099999999999994
    endloop
  endfacet
  facet normal 0 1 0
    outer loop
      vertex 0 35.75 42.099999999999994
      vertex 20.60495813208737 35.75 22.999855824363646
      vertex 19.24806226419516 35.75 21.917767478235113
    endloop
  endfacet
  facet normal 0 1 0
    outer loop
      vertex 0 35.75 42.099999999999994
      vertex 42.099999999999994 35.75 42.099999999999994
      vertex 20.60495813208737 35.75 22.999855824363646
    endloop
  endfacet
  facet normal 0 -1 0
    outer loop
      vertex 0 0 0
      vertex 42.099999999999994 0 0
      vertex 38.925 0 3.174999999999997
    endloop
  endfacet
  facet normal 0 -1 0
    outer loop
      vertex 42.099999999999994 0 0
      vertex 38.925 0 38.925
      vertex 38.925 0 3.174999999999997
    endloop
  endfacet
  facet normal 1 0 0
    outer loop
      vertex 42.099999999999994 0 0
      vertex 42.099999999999994 2 2
      vertex 42.099999999999994 2 40.099999999999994
    endloop
  endfacet
  facet normal 0 -1 0
    outer loop
      vertex 42.099999999999994 0 42.099999999999994
      vertex 3.174999999999997 0 38.925
      vertex 38.925 0 38.925
    endloop
  endfacet
  facet normal 0 -1 0
    outer loop
      vertex 42.099999999999994 0 0
      vertex 42.099999999999994 0 42.099999999999994
      vertex 38.925 0 38.925
    endloop
  endfacet
  facet normal 1 0 0
    outer loop
      vertex 42.099999999999994 0 0
      vertex 42.099999999999994 2 40.099999999999994
      vertex 42.099999999999994 0 42.099999999999994
    endloop
  endfacet
  facet normal 0 0 -1
    outer loop
      vertex 0 0 0
      vertex 42.099999999999994 35.75 0
      vertex 42.099999999999994 0 0
    endloop
  endfacet
  facet normal 0 1 0
    outer loop
      vertex 20.60495813208737 35.75 19.10014417563635
      vertex 22.296979603717464 35.75 19.486337035063936
      vertex 42.099999999999994 35.75 0
    endloop
  endfacet
  facet normal 0 1 0
    outer loop
      vertex 22.296979603717464 35.75 19.486337035063936
      vertex 23.049999999999997 35.75 21.049999999999997
      vertex 42.099999999999994 35.75 0
    endloop
  endfacet
  facet normal 1 0 0
    outer loop
      vertex 42.099999999999994 0 0
      vertex 42.099999999999994 33.75 2
      vertex 42.099999999999994 2 2
    endloop
  endfacet
  facet normal 1 0 0
    outer loop
      vertex 42.099999999999994 0 0
      vertex 42.099999999999994 35.75 0
      vertex 42.099999999999994 33.75 2
    endloop
  endfacet
  facet normal 1 0 0
    outer loop
      vertex 42.099999999999994 33.75 2
      vertex 42.099999999999994 35.75 0
      vertex 42.099999999999994 33.75 40.099999999999994
    endloop
  endfacet
  facet normal 0 1 0
    outer loop
      vertex 20.60495813208737 35.75 22.999855824363646
      vertex 42.099999999999994 35.75 42.099999999999994
      vertex 22.296979603717464 35.75 22.613662964936058
    endloop
  endfacet
  facet normal 0 1 0
    outer loop
      vertex 22.296979603717464 35.75 22.613662964936058
      vertex 42.099999999999994 35.75 42.099999999999994
      vertex 23.049999999999997 35.75 21.049999999999997
    endloop
  endfacet
  facet normal 0 0 1
    outer loop
      vertex 0 35.75 42.099999999999994
      vertex 42.099999999999994 0 42.099999999999994
      vertex 42.099999999999994 35.75 42.099999999999994
    endloop
  endfacet
  facet normal 1 0 0
    outer loop
      vertex 42.099999999999994 0 42.099999999999994
      vertex 42.099999999999994 2 40.099999999999994
      vertex 42.099999999999994 35.75 42.099999999999994
    endloop
  endfacet
  facet normal 0 1 0
    outer loop
      vertex 42.099999999999994 35.75 0
      vertex 23.049999999999997 35.75 21.049999999999997
      vertex 42.099999999999994 35.75 42.099999999999994
    endloop
  endfacet
  facet normal 1 0 0
    outer loop
      vertex 42.099999999999994 35.75 0
      vertex 42.099999999999994 35.75 42.099999999999994
      vertex 42.099999999999994 33.75 40.099999999999994
    endloop
  endfacet
  facet normal 1 0 0
    outer loop
      vertex 42.099999999999994 2 40.099999999999994
      vertex 42.099999999999994 33.75 40.099999999999994
      vertex 42.099999999999994 35.75 42.099999999999994
    endloop
  endfacet
  facet normal 0 1 0
    outer loop
      vertex 0 2 2
      vertex 0 2 40.099999999999994
      vertex 42.099999999999994 2 40.099999999999994
    endloop
  endfacet
  facet normal 0 0 1
    outer loop
      vertex 0 2 2
      vertex 42.099999999999994 2 2
      vertex 0 33.75 2
    endloop
  endfacet
  facet normal 0 -1 0
    outer loop
      vertex 0 33.75 2
      vertex 42.099999999999994 33.75 2
      vertex 20.60495813208737 33.75 19.10014417563635
    endloop
  endfacet
  facet normal 0 -1 0
    outer loop
      vertex 0 33.75 2
      vertex 19.24806226419516 33.75 20.18223252176488
      vertex 19.24806226419516 33.75 21.917767478235113
    endloop
  endfacet
  facet normal 0 -1 0
    outer loop
      vertex 0 33.75 2
      vertex 20.60495813208737 33.75 19.10014417563635
      vertex 19.24806226419516 33.75 20.18223252176488
    endloop
  endfacet
  facet normal 0 -1 0
    outer loop
      vertex 0 33.75 2
      vertex 19.24806226419516 33.75 21.917767478235113
      vertex 0 33.75 40.099999999999994
    endloop
  endfacet
  facet normal 0 -1 0
    outer loop
      vertex 0 33.75 40.099999999999994
      vertex 19.24806226419516 33.75 21.917767478235113
      vertex 20.60495813208737 33.75 22.999855824363646
    endloop
  endfacet
  facet normal 0 -1 0
    outer loop
      vertex 0 33.75 40.099999999999994
      vertex 20.60495813208737 33.75 22.999855824363646
      vertex 22.296979603717464 33.75 22.613662964936058
    endloop
  endfacet
  facet normal 0 0 -1
    outer loop
      vertex 0 2 40.099999999999994
      vertex 0 33.75 40.099999999999994
      vertex 42.099999999999994 33.75 40.099999999999994
    endloop
  endfacet
  facet normal 0 1 0
    outer loop
      vertex 0 2 2
      vertex 42.099999999999994 2 40.099999999999994
      vertex 42.099999999999994 2 2
    endloop
  endfacet
  facet normal 0 0 1
    outer loop
      vertex 0 33.75 2
      vertex 42.099999999999994 2 2
      vertex 42.099999999999994 33.75 2
    endloop
  endfacet
  facet normal 0 -1 0
    outer loop
      vertex 20.60495813208737 33.75 19.10014417563635
      vertex 42.099999999999994 33.75 2
      vertex 22.296979603717464 33.75 19.486337035063936
    endloop
  endfacet
  facet normal 0 -1 0
    outer loop
      vertex 22.296979603717464 33.75 19.486337035063936
      vertex 42.099999999999994 33.75 2
      vertex 42.099999999999994 33.75 40.099999999999994
    endloop
  endfacet
  facet normal 0 0 -1
    outer loop
      vertex 0 2 40.099999999999994
      vertex 42.099999999999994 33.75 40.099999999999994
      vertex 42.099999999999994 2 40.099999999999994
    endloop
  endfacet
  facet normal 0 -1 0
    outer loop
      vertex 22.296979603717464 33.75 19.486337035063936
      vertex 42.099999999999994 33.75 40.099999999999994
      vertex 23.049999999999997 33.75 21.049999999999997
    endloop
  endfacet
  facet normal 0 -1 0
    outer loop
      vertex 22.296979603717464 33.75 22.613662964936058
      vertex 23.049999999999997 33.75 21.049999999999997
      vertex 42.099999999999994 33.75 40.099999999999994
    endloop
  endfacet
  facet normal 0 -1 0
    outer loop
      vertex 0 33.75 40.099999999999994
      vertex 22.296979603717464 33.75 22.613662964936058
      vertex 42.099999999999994 33.75 40.099999999999994
    endloop
  endfacet
  facet normal 1 0 0
    outer loop
      vertex 19.24806226419516 33.75 20.18223252176488
      vertex 19.24806226419516 35.75 20.18223252176488
      vertex 19.24806226419516 33.75 21.917767478235113
    endloop
  endfacet
  facet normal 0.6234898018587341 0 0.7818314824680292
    outer loop
      vertex 19.24806226419516 33.75 20.18223252176488
      vertex 20.60495813208737 35.75 19.10014417563635
      vertex 19.24806226419516 35.75 20.18223252176488
    endloop
  endfacet
  facet normal 0.6234898018587341 0 0.7818314824680292
    outer loop
      vertex 19.24806226419516 33.75 20.18223252176488
      vertex 20.60495813208737 33.75 19.10014417563635
      vertex 20.60495813208737 35.75 19.10014417563635
    endloop
  endfacet
  facet normal 0.6234898018587341 0 -0.7818314824680292
    outer loop
      vertex 19.24806226419516 33.75 21.917767478235113
      vertex 19.24806226419516 35.75 21.917767478235113
      vertex 20.60495813208737 33.75 22.999855824363646
    endloop
  endfacet
  facet normal 1 0 0
    outer loop
      vertex 19.24806226419516 35.75 20.18223252176488
      vertex 19.24806226419516 35.75 21.917767478235113
      vertex 19.24806226419516 33.75 21.917767478235113
    endloop
  endfacet
  facet normal 0.6234898018587341 0 -0.7818314824680292
    outer loop
      vertex 19.24806226419516 35.75 21.917767478235113
      vertex 20.60495813208737 35.75 22.999855824363646
      vertex 20.60495813208737 33.75 22.999855824363646
    endloop
  endfacet
  facet normal -0.22252093395631473 0 0.9749279121818236
    outer loop
      vertex 20.60495813208737 33.75 19.10014417563635
      vertex 22.296979603717464 35.75 19.486337035063936
      vertex 20.60495813208737 35.75 19.10014417563635
    endloop
  endfacet
  facet normal -0.22252093395631473 0 0.9749279121818236
    outer loop
      vertex 20.60495813208737 33.75 19.10014417563635
      vertex 22.296979603717464 33.75 19.486337035063936
      vertex 22.296979603717464 35.75 19.486337035063936
    endloop
  endfacet
  facet normal -0.9009688679024191 0 0.433883739117558
    outer loop
      vertex 22.296979603717464 33.75 19.486337035063936
      vertex 23.049999999999997 33.75 21.049999999999997
      vertex 23.049999999999997 35.75 21.049999999999997
    endloop
  endfacet
  facet normal -0.9009688679024191 0 0.433883739117558
    outer loop
      vertex 22.296979603717464 33.75 19.486337035063936
      vertex 23.049999999999997 35.75 21.049999999999997
      vertex 22.296979603717464 35.75 19.486337035063936
    endloop
  endfacet
  facet normal -0.22252093395631473 0 -0.9749279121818236
    outer loop
      vertex 20.60495813208737 33.75 22.999855824363646
      vertex 20.60495813208737 35.75 22.999855824363646
      vertex 22.296979603717464 33.75 22.613662964936058
    endloop
  endfacet
  facet normal -0.22252093395631473 0 -0.9749279121818236
    outer loop
      vertex 20.60495813208737 35.75 22.999855824363646
      vertex 22.296979603717464 35.75 22.613662964936058
      vertex 22.296979603717464 33.75 22.613662964936058
    endloop
  endfacet
  facet normal -0.9009688679024191 0 -0.433883739117558
    outer loop
      vertex 22.296979603717464 33.75 22.613662964936058
      vertex 22.296979603717464 35.75 22.613662964936058
      vertex 23.049999999999997 33.75 21.049999999999997
    endloop
  endfacet
  facet normal -0.9009688679024191 0 -0.433883739117558
    outer loop
      vertex 22.296979603717464 35.75 22.613662964936058
      vertex 23.049999999999997 35.75 21.049999999999997
      vertex 23.049999999999997 33.75 21.049999999999997
    endloop
  endfacet
  facet normal 0 0 -1
    outer loop
      vertex 3.174999999999997 -19.865 3.174999999999997
      vertex 5.174999999999997 -17.865 3.174999999999997
      vertex 6.772484276729557 -17.865 3.174999999999997
    endloop
  endfacet
  facet normal 0 0 -1
    outer loop
      vertex 3.174999999999997 -19.865 3.174999999999997
      vertex 5.174999999999997 -1.9899999999999984 3.174999999999997
      vertex 5.174999999999997 -17.865 3.174999999999997
    endloop
  endfacet
  facet normal 0 0 -1
    outer loop
      vertex 3.174999999999997 -19.865 3.174999999999997
      vertex 3.174999999999997 0 3.174999999999997
      vertex 5.174999999999997 -1.9899999999999984 3.174999999999997
    endloop
  endfacet
  facet normal -1 0 0
    outer loop
      vertex 3.174999999999997 -19.865 3.174999999999997
      vertex 3.174999999999997 0 38.925
      vertex 3.174999999999997 0 3.174999999999997
    endloop
  endfacet
  facet normal 0 -1 0
    outer loop
      vertex 3.174999999999997 -19.865 3.174999999999997
      vertex 11.667458132087368 -19.865 19.100144175636352
      vertex 10.310562264195159 -19.865 20.18223252176488
    endloop
  endfacet
  facet normal 0 -1 0
    outer loop
      vertex 3.174999999999997 -19.865 3.174999999999997
      vertex 13.359479603717464 -19.865 19.486337035063936
      vertex 11.667458132087368 -19.865 19.100144175636352
    endloop
  endfacet
  facet normal 0 -1 0
    outer loop
      vertex 3.174999999999997 -19.865 3.174999999999997
      vertex 10.310562264195159 -19.865 20.18223252176488
      vertex 3.174999999999997 -19.865 38.925
    endloop
  endfacet
  facet normal 0 0 -1
    outer loop
      vertex 3.174999999999997 -19.865 3.174999999999997
      vertex 6.772484276729557 -17.865 3.174999999999997
      vertex 38.925 -19.865 3.174999999999997
    endloop
  endfacet
  facet normal 0 -1 0
    outer loop
      vertex 3.174999999999997 -19.865 3.174999999999997
      vertex 29.54245813208737 -19.865 19.100144175636352
      vertex 28.18556226419516 -19.865 20.18223252176488
    endloop
  endfacet
  facet normal 0 -1 0
    outer loop
      vertex 3.174999999999997 -19.865 3.174999999999997
      vertex 28.18556226419516 -19.865 20.18223252176488
      vertex 28.18556226419516 -19.865 21.917767478235113
    endloop
  endfacet
  facet normal 0 -1 0
    outer loop
      vertex 3.174999999999997 -19.865 3.174999999999997
      vertex 38.925 -19.865 38.925
      vertex 13.359479603717464 -19.865 19.486337035063936
    endloop
  endfacet
  facet normal 0 0 -1
    outer loop
      vertex 5.174999999999997 -1.9899999999999984 3.174999999999997
      vertex 3.174999999999997 0 3.174999999999997
      vertex 38.925 0 3.174999999999997
    endloop
  endfacet
  facet normal -1 0 0
    outer loop
      vertex 3.174999999999997 -19.865 3.174999999999997
      vertex 3.174999999999997 -19.865 38.925
      vertex 3.174999999999997 0 38.925
    endloop
  endfacet
  facet normal 0 -1 0
    outer loop
      vertex 10.310562264195159 -19.865 20.18223252176488
      vertex 10.310562264195159 -19.865 21.917767478235113
      vertex 3.174999999999997 -19.865 38.925
    endloop
  endfacet
  facet normal 0 -1 0
    outer loop
      vertex 10.310562264195159 -19.865 21.917767478235113
      vertex 11.667458132087368 -19.865 22.999855824363646
      vertex 3.174999999999997 -19.865 38.925
    endloop
  endfacet
  facet normal 0 0 1
    outer loop
      vertex 3.174999999999997 -19.865 38.925
      vertex 5.174999999999997 -17.865 38.925
      vertex 3.174999999999997 0 38.925
    endloop
  endfacet
  facet normal 0 0 1
    outer loop
      vertex 5.174999999999997 -17.865 38.925
      vertex 5.174999999999997 -1.9899999999999984 38.925
      vertex 3.174999999999997 0 38.925
    endloop
  endfacet
  facet normal 0 0 1
    outer loop
      vertex 3.174999999999997 -19.865 38.925
      vertex 38.925 -19.865 38.925
      vertex 5.174999999999997 -17.865 38.925
    endloop
  endfacet
  facet normal 0 -1 0
    outer loop
      vertex 11.667458132087368 -19.865 22.999855824363646
      vertex 38.925 -19.865 38.925
      vertex 3.174999999999997 -19.865 38.925
    endloop
  endfacet
  facet normal 0 0 1
    outer loop
      vertex 5.174999999999997 -1.9899999999999984 38.925
      vertex 36.925 -1.9899999999999984 38.925
      vertex 3.174999999999997 0 38.925
    endloop
  endfacet
  facet normal 0 -1 0
    outer loop
      vertex 3.174999999999997 -19.865 3.174999999999997
      vertex 38.925 -19.865 3.174999999999997
      vertex 29.54245813208737 -19.865 19.100144175636352
    endloop
  endfacet
  facet normal 0 0 -1
    outer loop
      vertex 6.772484276729557 -17.865 3.174999999999997
      vertex 36.925 -17.865 3.174999999999997
      vertex 38.925 -19.865 3.174999999999997
    endloop
  endfacet
  facet normal 0 0 -1
    outer loop
      vertex 5.174999999999997 -1.9899999999999984 3.174999999999997
      vertex 38.925 0 3.174999999999997
      vertex 36.925 -1.9899999999999984 3.174999999999997
    endloop
  endfacet
  facet normal 0 0 -1
    outer loop
      vertex 38.925 -19.865 3.174999999999997
      vertex 36.925 -17.865 3.174999999999997
      vertex 38.925 0 3.174999999999997
    endloop
  endfacet
  facet normal 0 0 -1
    outer loop
      vertex 36.925 -17.865 3.174999999999997
      vertex 36.925 -1.9899999999999984 3.174999999999997
      vertex 38.925 0 3.174999999999997
    endloop
  endfacet
  facet normal 0 -1 0
    outer loop
      vertex 29.54245813208737 -19.865 19.100144175636352
      vertex 38.925 -19.865 3.174999999999997
      vertex 31.234479603717464 -19.865 19.486337035063936
    endloop
  endfacet
  facet normal 0 -1 0
    outer loop
      vertex 38.925 -19.865 3.174999999999997
      vertex 31.987499999999997 -19.865 21.049999999999997
      vertex 31.234479603717464 -19.865 19.486337035063936
    endloop
  endfacet
  facet normal 1 0 0
    outer loop
      vertex 38.925 -19.865 3.174999999999997
      vertex 38.925 0 3.174999999999997
      vertex 38.925 -19.865 38.925
    endloop
  endfacet
  facet normal 0 -1 0
    outer loop
      vertex 3.174999999999997 -19.865 3.174999999999997
      vertex 28.18556226419516 -19.865 21.917767478235113
      vertex 38.925 -19.865 38.925
    endloop
  endfacet
  facet normal 0 -1 0
    outer loop
      vertex 13.359479603717464 -19.865 19.486337035063936
      vertex 38.925 -19.865 38.925
      vertex 14.112499999999997 -19.865 21.049999999999997
    endloop
  endfacet
  facet normal 0 -1 0
    outer loop
      vertex 14.112499999999997 -19.865 21.049999999999997
      vertex 38.925 -19.865 38.925
      vertex 13.359479603717464 -19.865 22.613662964936058
    endloop
  endfacet
  facet normal 0 -1 0
    outer loop
      vertex 11.667458132087368 -19.865 22.999855824363646
      vertex 13.359479603717464 -19.865 22.613662964936058
      vertex 38.925 -19.865 38.925
    endloop
  endfacet
  facet normal 0 0 1
    outer loop
      vertex 5.174999999999997 -17.865 38.925
      vertex 38.925 -19.865 38.925
      vertex 36.925 -17.865 38.925
    endloop
  endfacet
  facet normal 0 0 1
    outer loop
      vertex 36.925 -1.9899999999999984 38.925
      vertex 38.925 0 38.925
      vertex 3.174999999999997 0 38.925
    endloop
  endfacet
  facet normal 0 -1 0
    outer loop
      vertex 38.925 -19.865 3.174999999999997
      vertex 38.925 -19.865 38.925
      vertex 31.987499999999997 -19.865 21.049999999999997
    endloop
  endfacet
  facet normal 0 -1 0
    outer loop
      vertex 28.18556226419516 -19.865 21.917767478235113
      vertex 29.54245813208737 -19.865 22.999855824363646
      vertex 38.925 -19.865 38.925
    endloop
  endfacet
  facet normal 0 -1 0
    outer loop
      vertex 31.987499999999997 -19.865 21.049999999999997
      vertex 38.925 -19.865 38.925
      vertex 31.234479603717464 -19.865 22.613662964936058
    endloop
  endfacet
  facet normal 0 -1 0
    outer loop
      vertex 29.54245813208737 -19.865 22.999855824363646
      vertex 31.234479603717464 -19.865 22.613662964936058
      vertex 38.925 -19.865 38.925
    endloop
  endfacet
  facet normal 1 0 0
    outer loop
      vertex 38.925 -19.865 38.925
      vertex 38.925 0 3.174999999999997
      vertex 38.925 0 38.925
    endloop
  endfacet
  facet normal 0 0 1
    outer loop
      vertex 38.925 -19.865 38.925
      vertex 36.925 -1.9899999999999984 38.925
      vertex 36.925 -17.865 38.925
    endloop
  endfacet
  facet normal 0 0 1
    outer loop
      vertex 38.925 -19.865 38.925
      vertex 38.925 0 38.925
      vertex 36.925 -1.9899999999999984 38.925
    endloop
  endfacet
  facet normal 0 1 0
    outer loop
      vertex 5.174999999999997 -17.865 3.174999999999997
      vertex 10.310562264195159 -17.865 20.18223252176488
      vertex 6.772484276729557 -17.865 3.174999999999997
    endloop
  endfacet
  facet normal 1 0 0
    outer loop
      vertex 5.174999999999997 -17.865 3.174999999999997
      vertex 5.174999999999997 -1.9899999999999984 3.174999999999997
      vertex 5.174999999999997 -1.9899999999999984 38.925
    endloop
  endfacet
  facet normal 0 1 0
    outer loop
      vertex 6.772484276729557 -17.865 3.174999999999997
      vertex 10.310562264195159 -17.865 20.18223252176488
      vertex 11.667458132087368 -17.865 19.100144175636352
    endloop
  endfacet
  facet normal 0 1 0
    outer loop
      vertex 5.174999999999997 -17.865 3.174999999999997
      vertex 5.174999999999997 -17.865 38.925
      vertex 10.310562264195159 -17.865 20.18223252176488
    endloop
  endfacet
  facet normal 0 1 0
    outer loop
      vertex 6.772484276729557 -17.865 3.174999999999997
      vertex 11.667458132087368 -17.865 19.100144175636352
      vertex 13.359479603717464 -17.865 19.486337035063936
    endloop
  endfacet
  facet normal 0 1 0
    outer loop
      vertex 6.772484276729557 -17.865 3.174999999999997
      vertex 13.359479603717464 -17.865 19.486337035063936
      vertex 14.112499999999997 -17.865 21.049999999999997
    endloop
  endfacet
  facet normal 0 1 0
    outer loop
      vertex 6.772484276729557 -17.865 3.174999999999997
      vertex 28.18556226419516 -17.865 21.917767478235113
      vertex 28.18556226419516 -17.865 20.18223252176488
    endloop
  endfacet
  facet normal 1 0 0
    outer loop
      vertex 5.174999999999997 -17.865 3.174999999999997
      vertex 5.174999999999997 -1.9899999999999984 38.925
      vertex 5.174999999999997 -17.865 38.925
    endloop
  endfacet
  facet normal 0 1 0
    outer loop
      vertex 10.310562264195159 -17.865 20.18223252176488
      vertex 5.174999999999997 -17.865 38.925
      vertex 10.310562264195159 -17.865 21.917767478235113
    endloop
  endfacet
  facet normal 0 1 0
    outer loop
      vertex 10.310562264195159 -17.865 21.917767478235113
      vertex 5.174999999999997 -17.865 38.925
      vertex 11.667458132087368 -17.865 22.999855824363646
    endloop
  endfacet
  facet normal 0 1 0
    outer loop
      vertex 11.667458132087368 -17.865 22.999855824363646
      vertex 5.174999999999997 -17.865 38.925
      vertex 13.359479603717464 -17.865 22.613662964936058
    endloop
  endfacet
  facet normal 0 1 0
    outer loop
      vertex 6.772484276729557 -17.865 3.174999999999997
      vertex 14.112499999999997 -17.865 21.049999999999997
      vertex 36.925 -17.865 38.925
    endloop
  endfacet
  facet normal 0 1 0
    outer loop
      vertex 5.174999999999997 -17.865 38.925
      vertex 36.925 -17.865 38.925
      vertex 13.359479603717464 -17.865 22.613662964936058
    endloop
  endfacet
  facet normal 0 -1 0
    outer loop
      vertex 5.174999999999997 -1.9899999999999984 3.174999999999997
      vertex 36.925 -1.9899999999999984 38.925
      vertex 5.174999999999997 -1.9899999999999984 38.925
    endloop
  endfacet
  facet normal 0 1 0
    outer loop
      vertex 6.772484276729557 -17.865 3.174999999999997
      vertex 29.54245813208737 -17.865 19.100144175636352
      vertex 36.925 -17.865 3.174999999999997
    endloop
  endfacet
  facet normal 0 1 0
    outer loop
      vertex 6.772484276729557 -17.865 3.174999999999997
      vertex 28.18556226419516 -17.865 20.18223252176488
      vertex 29.54245813208737 -17.865 19.100144175636352
    endloop
  endfacet
  facet normal 0 -1 0
    outer loop
      vertex 5.174999999999997 -1.9899999999999984 3.174999999999997
      vertex 36.925 -1.9899999999999984 3.174999999999997
      vertex 36.925 -1.9899999999999984 38.925
    endloop
  endfacet
  facet normal 0 1 0
    outer loop
      vertex 29.54245813208737 -17.865 19.100144175636352
      vertex 31.234479603717464 -17.865 19.486337035063936
      vertex 36.925 -17.865 3.174999999999997
    endloop
  endfacet
  facet normal 0 1 0
    outer loop
      vertex 36.925 -17.865 3.174999999999997
      vertex 31.234479603717464 -17.865 19.486337035063936
      vertex 31.987499999999997 -17.865 21.049999999999997
    endloop
  endfacet
  facet normal -1 0 0
    outer loop
      vertex 36.925 -17.865 3.174999999999997
      vertex 36.925 -17.865 38.925
      vertex 36.925 -1.9899999999999984 3.174999999999997
    endloop
  endfacet
  facet normal 0 1 0
    outer loop
      vertex 6.772484276729557 -17.865 3.174999999999997
      vertex 36.925 -17.865 38.925
      vertex 28.18556226419516 -17.865 21.917767478235113
    endloop
  endfacet
  facet normal 0 1 0
    outer loop
      vertex 14.112499999999997 -17.865 21.049999999999997
      vertex 13.359479603717464 -17.865 22.613662964936058
      vertex 36.925 -17.865 38.925
    endloop
  endfacet
  facet normal 0 1 0
    outer loop
      vertex 28.18556226419516 -17.865 21.917767478235113
      vertex 36.925 -17.865 38.925
      vertex 29.54245813208737 -17.865 22.999855824363646
    endloop
  endfacet
  facet normal 0 1 0
    outer loop
      vertex 36.925 -17.865 3.174999999999997
      vertex 31.987499999999997 -17.865 21.049999999999997
      vertex 36.925 -17.865 38.925
    endloop
  endfacet
  facet normal 0 1 0
    outer loop
      vertex 29.54245813208737 -17.865 22.999855824363646
      vertex 36.925 -17.865 38.925
      vertex 31.234479603717464 -17.865 22.613662964936058
    endloop
  endfacet
  facet normal 0 1 0
    outer loop
      vertex 31.987499999999997 -17.865 21.049999999999997
      vertex 31.234479603717464 -17.865 22.613662964936058
      vertex 36.925 -17.865 38.925
    endloop
  endfacet
  facet normal -1 0 0
    outer loop
      vertex 36.925 -17.865 38.925
      vertex 36.925 -1.9899999999999984 38.925
      vertex 36.925 -1.9899999999999984 3.174999999999997
    endloop
  endfacet
  facet normal 1 0 0
    outer loop
      vertex 10.310562264195159 -19.865 20.18223252176488
      vertex 10.310562264195159 -17.865 20.18223252176488
      vertex 10.310562264195159 -19.865 21.917767478235113
    endloop
  endfacet
  facet normal 0.6234898018587328 0 0.7818314824680302
    outer loop
      vertex 10.310562264195159 -19.865 20.18223252176488
      vertex 11.667458132087368 -19.865 19.100144175636352
      vertex 11.667458132087368 -17.865 19.100144175636352
    endloop
  endfacet
  facet normal 0.6234898018587328 0 0.7818314824680302
    outer loop
      vertex 10.310562264195159 -19.865 20.18223252176488
      vertex 11.667458132087368 -17.865 19.100144175636352
      vertex 10.310562264195159 -17.865 20.18223252176488
    endloop
  endfacet
  facet normal -0.22252093395631278 0 0.974927912181824
    outer loop
      vertex 11.667458132087368 -19.865 19.100144175636352
      vertex 13.359479603717464 -17.865 19.486337035063936
      vertex 11.667458132087368 -17.865 19.100144175636352
    endloop
  endfacet
  facet normal -0.22252093395631278 0 0.974927912181824
    outer loop
      vertex 11.667458132087368 -19.865 19.100144175636352
      vertex 13.359479603717464 -19.865 19.486337035063936
      vertex 13.359479603717464 -17.865 19.486337035063936
    endloop
  endfacet
  facet normal -0.9009688679024191 0 0.433883739117558
    outer loop
      vertex 13.359479603717464 -19.865 19.486337035063936
      vertex 14.112499999999997 -17.865 21.049999999999997
      vertex 13.359479603717464 -17.865 19.486337035063936
    endloop
  endfacet
  facet normal -0.9009688679024191 0 0.433883739117558
    outer loop
      vertex 13.359479603717464 -19.865 19.486337035063936
      vertex 14.112499999999997 -19.865 21.049999999999997
      vertex 14.112499999999997 -17.865 21.049999999999997
    endloop
  endfacet
  facet normal 1 0 0
    outer loop
      vertex 10.310562264195159 -17.865 20.18223252176488
      vertex 10.310562264195159 -17.865 21.917767478235113
      vertex 10.310562264195159 -19.865 21.917767478235113
    endloop
  endfacet
  facet normal 0.6234898018587341 0 -0.7818314824680292
    outer loop
      vertex 10.310562264195159 -19.865 21.917767478235113
      vertex 10.310562264195159 -17.865 21.917767478235113
      vertex 11.667458132087368 -19.865 22.999855824363646
    endloop
  endfacet
  facet normal 0.6234898018587341 0 -0.7818314824680292
    outer loop
      vertex 11.667458132087368 -19.865 22.999855824363646
      vertex 10.310562264195159 -17.865 21.917767478235113
      vertex 11.667458132087368 -17.865 22.999855824363646
    endloop
  endfacet
  facet normal -0.22252093395631473 0 -0.9749279121818236
    outer loop
      vertex 11.667458132087368 -19.865 22.999855824363646
      vertex 11.667458132087368 -17.865 22.999855824363646
      vertex 13.359479603717464 -19.865 22.613662964936058
    endloop
  endfacet
  facet normal -0.22252093395631473 0 -0.9749279121818236
    outer loop
      vertex 11.667458132087368 -17.865 22.999855824363646
      vertex 13.359479603717464 -17.865 22.613662964936058
      vertex 13.359479603717464 -19.865 22.613662964936058
    endloop
  endfacet
  facet normal -0.9009688679024191 0 -0.433883739117558
    outer loop
      vertex 14.112499999999997 -19.865 21.049999999999997
      vertex 13.359479603717464 -19.865 22.613662964936058
      vertex 13.359479603717464 -17.865 22.613662964936058
    endloop
  endfacet
  facet normal -0.9009688679024191 0 -0.433883739117558
    outer loop
      vertex 14.112499999999997 -19.865 21.049999999999997
      vertex 13.359479603717464 -17.865 22.613662964936058
      vertex 14.112499999999997 -17.865 21.049999999999997
    endloop
  endfacet
  facet normal 1 0 0
    outer loop
      vertex 28.18556226419516 -19.865 20.18223252176488
      vertex 28.18556226419516 -17.865 20.18223252176488
      vertex 28.18556226419516 -19.865 21.917767478235113
    endloop
  endfacet
  facet normal 0.6234898018587328 0 0.7818314824680302
    outer loop
      vertex 28.18556226419516 -19.865 20.18223252176488
      vertex 29.54245813208737 -17.865 19.100144175636352
      vertex 28.18556226419516 -17.865 20.18223252176488
    endloop
  endfacet
  facet normal 0.6234898018587328 0 0.7818314824680302
    outer loop
      vertex 28.18556226419516 -19.865 20.18223252176488
      vertex 29.54245813208737 -19.865 19.100144175636352
      vertex 29.54245813208737 -17.865 19.100144175636352
    endloop
  endfacet
  facet normal -0.22252093395631278 0 0.974927912181824
    outer loop
      vertex 29.54245813208737 -19.865 19.100144175636352
      vertex 31.234479603717464 -17.865 19.486337035063936
      vertex 29.54245813208737 -17.865 19.100144175636352
    endloop
  endfacet
  facet normal -0.22252093395631278 0 0.974927912181824
    outer loop
      vertex 29.54245813208737 -19.865 19.100144175636352
      vertex 31.234479603717464 -19.865 19.486337035063936
      vertex 31.234479603717464 -17.865 19.486337035063936
    endloop
  endfacet
  facet normal -0.9009688679024191 0 0.433883739117558
    outer loop
      vertex 31.234479603717464 -19.865 19.486337035063936
      vertex 31.987499999999997 -17.865 21.049999999999997
      vertex 31.234479603717464 -17.865 19.486337035063936
    endloop
  endfacet
  facet normal -0.9009688679024191 0 0.433883739117558
    outer loop
      vertex 31.234479603717464 -19.865 19.486337035063936
      vertex 31.987499999999997 -19.865 21.049999999999997
      vertex 31.987499999999997 -17.865 21.049999999999997
    endloop
  endfacet
  facet normal 1 0 0
    outer loop
      vertex 28.18556226419516 -17.865 20.18223252176488
      vertex 28.18556226419516 -17.865 21.917767478235113
      vertex 28.18556226419516 -19.865 21.917767478235113
    endloop
  endfacet
  facet normal 0.6234898018587341 0 -0.7818314824680292
    outer loop
      vertex 28.18556226419516 -19.865 21.917767478235113
      vertex 28.18556226419516 -17.865 21.917767478235113
      vertex 29.54245813208737 -19.865 22.999855824363646
    endloop
  endfacet
  facet normal 0.6234898018587341 0 -0.7818314824680292
    outer loop
      vertex 29.54245813208737 -19.865 22.999855824363646
      vertex 28.18556226419516 -17.865 21.917767478235113
      vertex 29.54245813208737 -17.865 22.999855824363646
    endloop
  endfacet
  facet normal -0.22252093395631473 0 -0.9749279121818236
    outer loop
      vertex 29.54245813208737 -19.865 22.999855824363646
      vertex 29.54245813208737 -17.865 22.999855824363646
      vertex 31.234479603717464 -19.865 22.613662964936058
    endloop
  endfacet
  facet normal -0.9009688679024191 0 -0.433883739117558
    outer loop
      vertex 31.987499999999997 -19.865 21.049999999999997
      vertex 31.234479603717464 -19.865 22.613662964936058
      vertex 31.234479603717464 -17.865 22.613662964936058
    endloop
  endfacet
  facet normal -0.22252093395631473 0 -0.9749279121818236
    outer loop
      vertex 29.54245813208737 -17.865 22.999855824363646
      vertex 31.234479603717464 -17.865 22.613662964936058
      vertex 31.234479603717464 -19.865 22.613662964936058
    endloop
  endfacet
  facet normal -0.9009688679024191 0 -0.433883739117558
    outer loop
      vertex 31.987499999999997 -19.865 21.049999999999997
      vertex 31.234479603717464 -17.865 22.613662964936058
      vertex 31.987499999999997 -17.865 21.049999999999997
    endloop
  endfacet
endsolid OpenSCAD_Model
